<svg id="Capa_1" enable-background="new 0 0 512.001 512.001" height="512" viewBox="0 0 512.001 512.001" width="512" xmlns="http://www.w3.org/2000/svg"><path d="m72.589 14.178-58.367 58.367c-10.306 10.306-8.423 27.504 3.869 35.336l54.426 34.677 70.086-70.086-34.677-54.426c-7.833-12.291-25.031-14.174-35.337-3.868z" fill="#e1b89a"/><path d="m81.696 8.601c-3.309 1.065-6.44 2.909-9.107 5.577l-58.367 58.367c-10.306 10.306-8.423 27.504 3.869 35.336l54.426 34.677 31.515-31.515c-25.82-29.088-36.229-68.855-22.336-102.442z" fill="#d2996f"/><ellipse cx="101.12" cy="54.908" fill="#d2996f" rx="7.639" ry="7.639" transform="matrix(.987 -.16 .16 .987 -7.49 16.907)"/><ellipse cx="64.523" cy="60.48" fill="#e1b89a" rx="7.639" ry="7.639" transform="matrix(.924 -.383 .383 .924 -18.233 29.296)"/><circle cx="56.884" cy="98.056" fill="#e1b89a" r="7.639"/><path d="m236.899 161.903-58.952-58.952-74.953 74.953 58.952 58.952c6.501 6.501 9.015 15.991 6.583 24.858l-5.879 21.439c-6.475 23.616.218 48.89 17.533 66.205l141.504 141.504c18.187 18.187 47.674 18.187 65.861 0l103.356-103.356c18.187-18.187 18.187-47.674 0-65.861l-141.503-141.505c-17.315-17.315-42.589-24.008-66.205-17.533l-21.439 5.879c-8.867 2.431-18.357-.082-24.858-6.583z" fill="#a3defe"/><path d="m162.651 283.152c-6.476 23.616.218 48.89 17.533 66.205l96.774 96.774c-38.417-69.27-56.201-190.029-34.357-279.945-2.063-1.142-3.989-2.57-5.703-4.284l-58.952-58.952-74.953 74.953 58.952 58.952c6.501 6.501 9.015 15.991 6.583 24.858z" fill="#7acefa"/><path d="m143.197 51.84-91.313 91.313c-6.534 6.534-6.534 17.128 0 23.662l19.268 19.268c6.534 6.534 17.128 6.534 23.662 0l91.313-91.313c6.534-6.534 6.534-17.128 0-23.662l-19.268-19.268c-6.535-6.534-17.128-6.534-23.662 0z" fill="#8eafe2"/><path d="m119.208 75.829-67.324 67.324c-6.534 6.534-6.534 17.128 0 23.662l19.268 19.268c6.534 6.534 17.128 6.534 23.662 0l46.399-46.399c-10.738-9.558-28.367-28.42-22.005-63.855z" fill="#6a96d7"/><path d="m423.744 318.205-4.718-4.718c-1.704-1.704-4.015-2.661-6.424-2.661h-20.577c-5.018 0-9.085-4.068-9.085-9.085v-20.577c0-2.409-.957-4.72-2.661-6.424l-35.111-35.111c-3.555-3.555-8.765-4.89-13.591-3.482l-10.482 3.057c-3.34.974-6.68-1.531-6.68-5.01v-20.495c0-3.088-1.227-6.05-3.41-8.233l-8.055-8.055c-7.171-7.171-19.141-6.124-24.842 2.264-11.413 16.793-26.829 34.145-46.524 48.546l150.872 150.872c18.413-13.463 33.085-29.507 44.244-45.261 7.812-11.033 6.602-26.069-2.956-35.627z" fill="#f6e3a3"/><path d="m394.094 394.295c-6.276 13.496-17.12 24.34-30.616 30.616-5.164 2.401-11.278 1.32-15.304-2.707l-142.51-142.51c-4.027-4.027-5.108-10.141-2.707-15.304 6.275-13.496 17.119-24.34 30.616-30.616 5.164-2.401 11.278-1.32 15.304 2.707l142.51 142.51c4.027 4.026 5.108 10.14 2.707 15.304z" fill="#fcf2d0"/><g fill="#f6e3a3"><path d="m260.14 289.532c-4.142 0-7.5-3.358-7.5-7.5v-10.513c0-4.142 3.358-7.5 7.5-7.5 4.143 0 7.5 3.358 7.5 7.5v10.513c0 4.142-3.358 7.5-7.5 7.5z"/><path d="m343.127 398.096c-4.142 0-7.5-3.358-7.5-7.5v-10.513c0-4.142 3.358-7.5 7.5-7.5 4.143 0 7.5 3.358 7.5 7.5v10.513c0 4.142-3.357 7.5-7.5 7.5z"/><path d="m276.958 305.314c-4.143 0-7.5-3.358-7.5-7.5v-3.559c0-4.142 3.357-7.5 7.5-7.5s7.5 3.358 7.5 7.5v3.559c0 4.142-3.357 7.5-7.5 7.5z"/><path d="m233.514 233.802c-13.469 6.28-24.291 17.111-30.558 30.587-2.401 5.164-1.32 11.278 2.707 15.304l31.133 31.133c-3.155-25.514-4.356-51.638-3.282-77.024z"/></g><path d="m420.992 428.449c-1.919 0-3.839-.733-5.304-2.197l-7.13-7.13c-2.929-2.929-2.929-7.678 0-10.606 2.93-2.929 7.678-2.929 10.607 0l7.13 7.13c2.929 2.929 2.929 7.678 0 10.607-1.464 1.463-3.384 2.196-5.303 2.196z" fill="#7acefa"/><path d="m371.722 477.719c-1.919 0-3.839-.732-5.304-2.197l-7.13-7.13c-2.929-2.929-2.929-7.678 0-10.606 2.93-2.929 7.678-2.929 10.607 0l7.13 7.13c2.929 2.929 2.929 7.678 0 10.606-1.464 1.465-3.384 2.197-5.303 2.197z" fill="#7acefa"/><path d="m470.263 379.178c-1.919 0-3.839-.733-5.304-2.197l-7.13-7.13c-2.929-2.929-2.929-7.678 0-10.606 2.93-2.929 7.678-2.929 10.607 0l7.13 7.13c2.929 2.929 2.929 7.678 0 10.607-1.464 1.464-3.384 2.196-5.303 2.196z" fill="#7acefa"/><path d="m316.307 200.161-8.055-8.055c-5.028-5.029-11.976-7.528-19.054-6.859-7.032.664-13.335 4.386-17.295 10.21-7.598 11.179-16.265 21.483-25.802 30.7-5.04-1.717-10.674-1.518-15.691.814-15.079 7.012-27.244 19.177-34.255 34.255-3.714 7.988-2.024 17.54 4.205 23.77l142.509 142.51c4.026 4.026 9.44 6.156 14.924 6.156 3 0 6.021-.638 8.847-1.951 15.077-7.011 27.242-19.175 34.255-34.254v-.001c.76-1.636 1.282-3.339 1.597-5.064 11.184-10.113 21.386-21.603 30.327-34.227 9.969-14.073 8.382-33.109-3.772-45.264l-4.717-4.716c-3.132-3.134-7.297-4.859-11.729-4.859h-20.577c-.874 0-1.585-.711-1.585-1.585v-20.577c0-4.43-1.726-8.595-4.857-11.728l-35.111-35.111c-5.493-5.493-13.537-7.555-20.995-5.378l-7.562 2.206v-17.455c0-5.113-1.991-9.92-5.607-13.537zm70.987 190.972h-.001c-5.521 11.875-15.103 21.456-26.977 26.977-2.3 1.069-5.047.583-6.839-1.21l-142.51-142.51c-1.792-1.793-2.278-4.541-1.21-6.839 5.521-11.875 15.102-21.456 26.978-26.978.813-.378 1.682-.562 2.545-.562 1.578 0 3.135.613 4.294 1.771l142.51 142.51c1.792 1.794 2.278 4.542 1.21 6.841zm-64.099-144.729 10.481-3.057c2.195-.641 4.567-.034 6.187 1.585l35.111 35.111c.3.3.465.698.465 1.121v20.577c0 9.145 7.441 16.585 16.585 16.585h20.577c.417 0 .825.169 1.12.464l4.718 4.718c6.97 6.969 7.869 17.898 2.14 25.987-6.688 9.443-14.122 18.204-22.176 26.155-.53-.682-1.092-1.343-1.712-1.963l-138.445-138.444c9.595-9.494 18.349-20.003 26.063-31.353 1.458-2.146 3.695-3.463 6.299-3.709 2.617-.247 5.18.676 7.036 2.532l8.055 8.055c.783.783 1.215 1.824 1.215 2.93v20.496c0 4.042 1.854 7.751 5.087 10.175s7.313 3.167 11.194 2.035zm140.362 157.842-81.313 81.312c-7.379 7.379-17.19 11.443-27.626 11.443s-20.248-4.064-27.627-11.443l-141.504-141.504c-15.374-15.374-21.353-37.95-15.604-58.918l5.878-21.439c3.137-11.44-.124-23.757-8.513-32.145l-18.866-18.866c-2.929-2.929-7.678-2.929-10.607 0s-2.929 7.678 0 10.606l18.866 18.866c4.585 4.585 6.368 11.318 4.653 17.572l-5.878 21.439c-7.172 26.155.286 54.315 19.463 73.491l141.503 141.504c10.213 10.213 23.791 15.837 38.234 15.837 14.442 0 28.021-5.624 38.233-15.837l81.313-81.312c2.929-2.929 2.929-7.678 0-10.606-2.927-2.929-7.675-2.93-10.605 0zm32.651-87.905-141.503-141.504c-19.178-19.177-47.336-26.633-73.492-19.463l-21.44 5.879c-6.253 1.714-12.986-.068-17.571-4.653l-53.649-53.649 2.877-2.877c9.447-9.448 9.447-24.821 0-34.269l-19.269-19.269c-9.448-9.446-24.82-9.446-34.269 0l-1.786 1.786-21.856-34.306c-4.961-7.786-13.071-12.829-22.249-13.833-9.178-1.003-18.187 2.164-24.715 8.692l-58.367 58.367c-6.529 6.529-9.698 15.538-8.693 24.716s6.047 17.288 13.834 22.249l34.305 21.857-1.786 1.786c-9.448 9.448-9.448 24.821 0 34.269l19.269 19.269c4.724 4.725 10.928 7.085 17.134 7.085 6.204 0 12.411-2.362 17.134-7.085l2.877-2.877 10.262 10.262c1.464 1.464 3.384 2.197 5.303 2.197 1.92 0 3.839-.732 5.303-2.197 2.929-2.929 2.929-7.678 0-10.606l-10.262-10.262 64.346-64.346 53.648 53.648c8.388 8.388 20.708 11.65 32.145 8.513l21.44-5.878c20.971-5.75 43.544.229 58.918 15.604l141.503 141.503c14.309 14.309 15.25 37.561 2.142 52.938-2.688 3.152-2.311 7.886.842 10.573 1.412 1.204 3.141 1.793 4.861 1.793 2.121 0 4.228-.895 5.711-2.634 18.15-21.291 16.855-53.477-2.947-73.278zm-474.088-214.785c-3.93-2.504-6.476-6.598-6.983-11.231s1.092-9.181 4.388-12.476l58.367-58.367c3.295-3.295 7.841-4.896 12.476-4.388 4.633.507 8.727 3.052 11.231 6.983l23.644 37.109-66.013 66.014zm158.704-12.089-8.176 8.176c-.001.001-.003.002-.004.004-.001.001-.002.003-.004.004l-74.948 74.947s-.001 0-.001.001c0 0 0 .001-.001.001l-8.179 8.179c-3.6 3.6-9.456 3.599-13.055.001l-19.269-19.268c-1.744-1.744-2.704-4.062-2.704-6.528s.96-4.784 2.704-6.528l82.83-82.83c.009-.009.017-.017.026-.026l8.457-8.457c3.599-3.601 9.456-3.6 13.056 0l19.268 19.269c3.599 3.599 3.599 9.456 0 13.055z"/></svg>